<?xml version="1.0" standalone="no"?><!DOCTYPE svg PUBLIC "-//W3C//DTD SVG 1.1//EN" "http://www.w3.org/Graphics/SVG/1.1/DTD/svg11.dtd"><svg t="1617063408373" class="icon" viewBox="0 0 1024 1024" version="1.1" xmlns="http://www.w3.org/2000/svg" p-id="8862" xmlns:xlink="http://www.w3.org/1999/xlink" width="200" height="200"><defs><style type="text/css"></style></defs><path d="M918.703543 388.871314H531.441371c-4.725029-14.628571-9.757257-52.501943 29.564343-100.542171 21.591771-26.389943 30.793143-55.515429 26.667886-86.352457-8.543086-63.5904-69.339429-107.9296-76.244114-112.8448-13.180343-9.376914-31.451429-5.997714-40.799086 7.168a29.403429 29.403429 0 0 0 6.890057 40.930743c12.127086 8.630857 47.747657 40.725943 52.150857 73.581714 1.989486 14.774857-2.589257 26.5216-13.955657 40.433371-46.328686 56.6272-49.386057 108.383086-43.958857 137.640229H99.503543c-32.314514 0-61.717943 31.246629-61.717943 63.561143v436.4288c0 32.314514 29.403429 55.895771 61.717943 55.895771h819.2c32.314514 0 55.310629-23.581257 55.310628-55.895771V452.432457c0-32.314514-22.996114-63.561143-55.310628-63.561143z m-3.203657 497.371429h-819.2v-438.857143h819.2v438.857143z" fill="#4e73df" p-id="8863"></path><path d="M388.871314 520.528457a14.628571 14.628571 0 0 0-14.628571-14.628571h-87.771429a14.628571 14.628571 0 0 0-14.628571 14.628571v58.514286a14.628571 14.628571 0 0 0 14.628571 14.628571h87.771429a14.628571 14.628571 0 0 0 14.628571-14.628571v-58.514286z m-87.771428 14.628572h58.514285v29.257142h-58.514285v-29.257142zM535.157029 520.528457a14.628571 14.628571 0 0 0-14.628572-14.628571h-87.771428a14.628571 14.628571 0 0 0-14.628572 14.628571v58.514286a14.628571 14.628571 0 0 0 14.628572 14.628571h87.771428a14.628571 14.628571 0 0 0 14.628572-14.628571v-58.514286z m-87.771429 14.628572h58.514286v29.257142h-58.514286v-29.257142zM696.071314 520.528457a14.628571 14.628571 0 0 0-14.628571-14.628571h-87.771429a14.628571 14.628571 0 0 0-14.628571 14.628571v58.514286a14.628571 14.628571 0 0 0 14.628571 14.628571h87.771429a14.628571 14.628571 0 0 0 14.628571-14.628571v-58.514286z m-87.771428 14.628572h58.514285v29.257142h-58.514285v-29.257142zM856.9856 520.528457a14.628571 14.628571 0 0 0-14.628571-14.628571h-87.771429a14.628571 14.628571 0 0 0-14.628571 14.628571v58.514286a14.628571 14.628571 0 0 0 14.628571 14.628571h87.771429a14.628571 14.628571 0 0 0 14.628571-14.628571v-58.514286z m-87.771429 14.628572h58.514286v29.257142h-58.514286v-29.257142zM242.5856 520.528457a14.628571 14.628571 0 0 0-14.628571-14.628571h-87.771429a14.628571 14.628571 0 0 0-14.628571 14.628571v58.514286a14.628571 14.628571 0 0 0 14.628571 14.628571h87.771429a14.628571 14.628571 0 0 0 14.628571-14.628571v-58.514286z m-87.771429 14.628572h58.514286v29.257142h-58.514286v-29.257142zM388.871314 637.557029a14.628571 14.628571 0 0 0-14.628571-14.628572h-87.771429a14.628571 14.628571 0 0 0-14.628571 14.628572v58.514285a14.628571 14.628571 0 0 0 14.628571 14.628572h87.771429a14.628571 14.628571 0 0 0 14.628571-14.628572v-58.514285z m-87.771428 14.628571h58.514285v29.257143h-58.514285v-29.257143zM535.157029 637.557029a14.628571 14.628571 0 0 0-14.628572-14.628572h-87.771428a14.628571 14.628571 0 0 0-14.628572 14.628572v58.514285a14.628571 14.628571 0 0 0 14.628572 14.628572h87.771428a14.628571 14.628571 0 0 0 14.628572-14.628572v-58.514285z m-87.771429 14.628571h58.514286v29.257143h-58.514286v-29.257143zM696.071314 637.557029a14.628571 14.628571 0 0 0-14.628571-14.628572h-87.771429a14.628571 14.628571 0 0 0-14.628571 14.628572v58.514285a14.628571 14.628571 0 0 0 14.628571 14.628572h87.771429a14.628571 14.628571 0 0 0 14.628571-14.628572v-58.514285z m-87.771428 14.628571h58.514285v29.257143h-58.514285v-29.257143zM242.5856 637.557029a14.628571 14.628571 0 0 0-14.628571-14.628572h-87.771429a14.628571 14.628571 0 0 0-14.628571 14.628572v58.514285a14.628571 14.628571 0 0 0 14.628571 14.628572h87.771429a14.628571 14.628571 0 0 0 14.628571-14.628572v-58.514285z m-87.771429 14.628571h58.514286v29.257143h-58.514286v-29.257143zM388.871314 754.5856a14.628571 14.628571 0 0 0-14.628571-14.628571h-87.771429a14.628571 14.628571 0 0 0-14.628571 14.628571v58.514286a14.628571 14.628571 0 0 0 14.628571 14.628571h87.771429a14.628571 14.628571 0 0 0 14.628571-14.628571v-58.514286z m-87.771428 14.628571h58.514285v29.257143h-58.514285v-29.257143zM535.157029 754.5856a14.628571 14.628571 0 0 0-14.628572-14.628571h-87.771428a14.628571 14.628571 0 0 0-14.628572 14.628571v58.514286a14.628571 14.628571 0 0 0 14.628572 14.628571h87.771428a14.628571 14.628571 0 0 0 14.628572-14.628571v-58.514286z m-87.771429 14.628571h58.514286v29.257143h-58.514286v-29.257143zM242.5856 754.5856a14.628571 14.628571 0 0 0-14.628571-14.628571h-87.771429a14.628571 14.628571 0 0 0-14.628571 14.628571v58.514286a14.628571 14.628571 0 0 0 14.628571 14.628571h87.771429a14.628571 14.628571 0 0 0 14.628571-14.628571v-58.514286z m-87.771429 14.628571h58.514286v29.257143h-58.514286v-29.257143z" fill="#4e73df" p-id="8864"></path><path d="M599.771429 827.728457h248.685714c8.0896 0 8.528457-2.106514 8.528457-10.181486V641.989486c0-8.0896-0.438857-19.061029-8.528457-19.061029h-87.771429c-8.0896 0-20.728686 10.971429-20.728685 19.061029v97.967543H599.771429c-8.0896 0-20.728686 10.986057-20.728686 19.075657v58.514285c0 8.074971 12.639086 10.181486 20.728686 10.181486z m8.528457-58.514286H760.685714c8.0896 0 8.528457-2.106514 8.528457-10.181485v-106.847086h58.514286v146.285714h-219.428571v-29.257143z" fill="#4e73df" p-id="8865"></path></svg>