<svg t="1617870879932" class="icon" viewBox="0 0 1024 1024" version="1.1" xmlns="http://www.w3.org/2000/svg" p-id="13935" width="200" height="200"><path d="M981.876364 309.061818A116.363636 116.363636 0 0 0 1000.727273 258.327273a116.363636 116.363636 0 0 0-104.261818-127.301818 99.141818 99.141818 0 0 0-11.636364 0 117.992727 117.992727 0 0 0-27.229091 3.490909A512 512 0 0 0 0 512a505.716364 505.716364 0 0 0 46.545455 210.618182 116.363636 116.363636 0 0 0 3.723636 142.429091A116.363636 116.363636 0 0 0 128 907.636364H139.636364a116.363636 116.363636 0 0 0 39.563636-6.981819 512 512 0 0 0 802.676364-591.592727zM884.363636 200.378182h4.654546a46.545455 46.545455 0 0 1-4.654546 93.090909h-4.654545a46.545455 46.545455 0 0 1 4.654545-93.090909zM512 69.818182a439.156364 439.156364 0 0 1 282.530909 102.865454 116.363636 116.363636 0 0 0 0 147.781819v1.163636L674.909091 538.298182a61.905455 61.905455 0 0 0-11.403636-2.327273L651.636364 535.272727a114.734545 114.734545 0 0 0-67.956364 23.272728l-111.941818-111.941819a118.458182 118.458182 0 0 0 16.058182-46.545454 116.363636 116.363636 0 0 0-104.261819-127.301818 99.141818 99.141818 0 0 0-11.636363 0 116.363636 116.363636 0 0 0-90.065455 189.905454l1.163637 1.163637L162.909091 677.934545a61.905455 61.905455 0 0 0-11.636364-3.025454H139.636364a114.734545 114.734545 0 0 0-35.84 6.050909A442.181818 442.181818 0 0 1 512 69.818182z m186.181818 586.472727a46.545455 46.545455 0 0 1-46.545454 41.890909h-4.654546a46.545455 46.545455 0 0 1 4.654546-93.090909h4.654545a46.545455 46.545455 0 0 1 41.890909 51.2zM418.909091 390.981818a46.545455 46.545455 0 0 1-46.545455 42.123637h-4.654545a46.545455 46.545455 0 0 1 4.654545-93.09091h4.654546A46.545455 46.545455 0 0 1 418.909091 390.981818zM139.636364 837.818182h-4.654546a46.545455 46.545455 0 0 1 4.654546-93.090909h4.654545a46.545455 46.545455 0 0 1-4.654545 93.090909z m372.363636 116.363636a439.621818 439.621818 0 0 1-276.48-97.745454 114.036364 114.036364 0 0 0 20.48-53.527273 116.363636 116.363636 0 0 0-31.650909-91.229091l118.225454-213.178182a125.672727 125.672727 0 0 0 18.152728 3.723637h11.636363a112.872727 112.872727 0 0 0 46.545455-10.007273l122.181818 122.181818a104.96 104.96 0 0 0-5.818182 25.6 114.967273 114.967273 0 0 0 25.6 85.410909A116.363636 116.363636 0 0 0 640 768h11.636364a116.363636 116.363636 0 0 0 84.247272-195.956364l118.225455-213.178181a125.672727 125.672727 0 0 0 18.152727 3.723636h11.636364a116.363636 116.363636 0 0 0 41.192727-7.68A436.130909 436.130909 0 0 1 954.181818 512a442.181818 442.181818 0 0 1-442.181818 442.181818z" p-id="13936" fill="#4e73df"></path></svg>