<?xml version="1.0" standalone="no"?><!DOCTYPE svg PUBLIC "-//W3C//DTD SVG 1.1//EN" "http://www.w3.org/Graphics/SVG/1.1/DTD/svg11.dtd"><svg t="1691160166481" class="icon" viewBox="0 0 1024 1024" version="1.1" xmlns="http://www.w3.org/2000/svg" p-id="2302" xmlns:xlink="http://www.w3.org/1999/xlink" width="200" height="200"><path d="M512 736c-105.856 0-192-86.08-192-192 0-105.856 86.144-192 192-192 105.92 0 192 86.144 192 192 0 105.92-86.08 192-192 192z m0-320c-70.592 0-128 57.408-128 128s57.408 128 128 128 128-57.408 128-128-57.408-128-128-128z m352 480h-704c-52.928 0-96-43.072-96-96v-512C64 235.072 107.072 192 160 192H256a32 32 0 0 1 0 64H160a32 32 0 0 0-32 32v512a32 32 0 0 0 32 32h704a32 32 0 0 0 32-32v-512a32 32 0 0 0-32-32H512a32 32 0 0 1 0-64h352c52.928 0 96 43.072 96 96v512c0 52.928-43.072 96-96 96zM768 336a48 48 0 1 0 96 0 48 48 0 0 0-96 0zM480 128a32 32 0 0 1-32 32H320a32 32 0 0 1 0-64h128a32 32 0 0 1 32 32z" fill="#4e73df" p-id="2303"></path></svg>