<svg xmlns="http://www.w3.org/2000/svg" xmlns:xlink="http://www.w3.org/1999/xlink" t="1712415278254" class="icon" viewBox="0 0 1024 1024" version="1.1" p-id="11126" width="200" height="200"><path d="M748.93 577.27l-99.22-130.54h198.45l-99.23 130.54z" p-id="11127" fill="#4e73df"/><path d="M877.08 316.39c11.57 0 18.34 5.04 19.98 7.33l-0.5 376.58c-1.64 2.29-8.41 7.32-19.97 7.32H146.92c-11.56 0-18.32-5.03-19.97-7.32l0.5-376.58c1.64-2.29 8.41-7.32 19.97-7.32h729.66m0-60.01H147.42c-44.16 0-79.97 29.68-79.97 66.29l-0.5 378.64c0 36.61 35.8 66.29 79.97 66.29h729.67c44.16 0 79.97-29.68 79.97-66.29l0.5-378.64c-0.03-36.61-35.83-66.29-79.98-66.29z" p-id="11128" fill="#4e73df"/></svg>