<?xml version="1.0" standalone="no"?><!DOCTYPE svg PUBLIC "-//W3C//DTD SVG 1.1//EN" "http://www.w3.org/Graphics/SVG/1.1/DTD/svg11.dtd"><svg t="1747302769143" class="icon" viewBox="0 0 1024 1024" version="1.1" xmlns="http://www.w3.org/2000/svg" p-id="2770" xmlns:xlink="http://www.w3.org/1999/xlink" width="200" height="200"><path d="M756.46289902 153.75412286l17.5412294-59.82008995c-16.6416794-4.49775088-34.18290878 4.94752588-39.13043555 21.13943027-4.49775088 17.0914544 4.94752588 34.18290878 21.58920616 38.68065967zM288.69678125 115.52323818c-4.94752588-16.6416794-22.03898028-26.08695615-39.13043467-21.13943027l17.5412294 59.82008995c16.6416794-4.94752588 26.08695615-22.03898028 21.58920527-38.68065968z" fill="#4e73df" p-id="2771"></path><path d="M131.27549258 395.73313349c-27.43628203-107.94602724 41.82908555-215.44227862 135.8320834-241.97901063L249.56634658 94.38380791C122.72976494 129.9160417 34.12406797 270.24587685 70.10607676 410.57571201c4.04797588 16.6416794 21.13943028 26.98650703 38.23088467 22.93853115 16.6416794-4.04797588 26.98650703-20.68965528 22.93853115-37.78110967zM133.52436758 733.96401787zM893.19453242 738.01199375c-1.79910088-12.59370352-6.74662675-24.73763115-14.39280351-35.08245879l-86.8065961-123.23838076V400.23088438l-0.449775-3.14842589-31.03448291 6.29685177 31.03448291-6.29685177v-0.449775c-2.24887588-8.99550263-4.49775088-17.5412294-7.19640263-26.08695615-6.74662675-21.13943028-15.29235352-41.37931055-25.63718115-61.16941582-22.48875527-42.27886055-59.82008994-92.65367286-119.19040489-124.13793076C638.62181914 116.87256406 582.39993008 62 513.1345625 62c-69.26536758 0-125.48725664 54.87256406-125.93703164 123.23838076C327.37744092 216.72263867 290.49588213 267.09745097 268.00712685 309.37631153c-10.34482763 19.34033028-18.8905544 40.02998467-25.63718203 61.16941581-2.69865088 8.99550263-5.39730176 17.5412294-7.19640175 26.98650615l30.58470791 6.29685177-30.58470791-5.84707589-0.449775 1.349325v1.349325s4.04797588 0.449775 6.29685175 0.449775l-6.29685175-0.449775-18.4407794 179.46026983L142.96964521 706.97751084c-4.94752588 8.09595175-8.09595175 17.0914544-9.44527763 26.53673203l62.51874082 8.99550264c0.449775-1.79910088 1.349325-3.59820088 2.24887587-4.94752676l76.01199346-133.13343339 3.14842589-5.84707589 0.449775-6.29685176-31.48425792-3.14842587 31.48425792 3.14842587L296.34295888 408.32683701c0.449775-1.349325 0.449775-2.69865088 0.89955-4.04797675 0.89955-3.59820088 2.24887588-8.99550263 4.49775089-15.29235352 4.49775088-13.04347852 11.24437763-31.48425791 21.58920527-51.27436318C344.46889531 298.13193388 378.6518041 255.40329834 430.82571729 232.91454307l-12.59370352-28.33583203L430.82571729 232.91454307l18.89055438-8.09595264v-38.68065967c0-34.18290878 28.33583203-62.06896582 62.96851583-62.06896494s62.96851582 27.88605703 62.96851582 62.06896494v38.68065967l18.89055439 8.09595264 12.59370352-28.33583203c-6.29685176 14.39280352-12.59370352 28.33583203-12.59370352 28.33583203 52.62368818 22.48875527 86.35682198 65.2173917 107.49625225 104.79760048 10.34482763 19.79010527 17.5412294 37.78110967 21.58920527 51.27436319 1.79910088 5.84707675 3.59820088 11.69415263 4.94752676 17.99100439V599.48125948l5.39730088 8.09595175 26.08695703-17.5412294-26.08695703 17.5412294 92.20389786 130.88455752c1.79910088 1.79910088 2.69865088 4.04797588 3.14842587 6.74662676 1.349325 11.69415263-1.349325 19.79010527-4.49775087 24.28785615-2.24887588 3.59820088-6.29685176 6.29685176-14.84257852 6.29685176H214.93366279c-8.54572676 0-12.59370352-3.14842588-15.29235352-6.74662676-3.14842588-4.94752588-5.84707675-13.49325352-4.04797587-26.08695615l-62.51874082-8.99550264c-3.59820088 23.83808115 0 49.0254873 13.94302851 69.26536758 14.39280352 21.58920528 38.23088467 34.63268378 67.4662667 34.63268379h135.83208428c14.39280352 70.61469258 78.26086933 124.13793076 154.27286368 124.13793076s139.88006016-53.07346318 154.27286367-124.13793076h151.57421279c28.33583203 0 51.72413818-12.14392763 66.1169417-32.83358379 15.29235352-19.79010527 19.34033028-44.07796143 16.64167851-67.0164917z m-388.15592167 161.46926543a94.45277373 94.45277373 0 0 1-89.05547198-62.06896494h178.11094394c-13.04347852 35.98200878-48.12593731 62.06896582-89.05547196 62.06896494zM774.00412842 94.38380791l-17.54122939 59.82008994c94.00299873 26.53673203 163.26836543 134.0329834 135.83208339 241.97901064-4.04797588 16.6416794 6.74662675 33.28335791 23.38830615 37.33133467 16.6416794 3.59820088 33.28335791-5.84707675 37.78110968-22.03898115l-15.2923544-3.59820088 15.2923544 3.59820088c35.98200878-141.22938516-52.62368818-281.55922031-179.46026983-317.0914541z" fill="#4e73df" p-id="2772"></path></svg>