<?xml version="1.0" standalone="no"?><!DOCTYPE svg PUBLIC "-//W3C//DTD SVG 1.1//EN" "http://www.w3.org/Graphics/SVG/1.1/DTD/svg11.dtd"><svg t="1724230432645" class="icon" viewBox="0 0 1024 1024" version="1.1" xmlns="http://www.w3.org/2000/svg" p-id="6354" xmlns:xlink="http://www.w3.org/1999/xlink" width="200" height="200"><path d="M887.56318 845.693394a537.058898 537.058898 0 0 1-29.642862-227.552552 689.632448 689.632448 0 0 0-23.103995-231.039948 64.516816 64.516816 0 0 0-76.722699-43.592443 63.644967 63.644967 0 0 0-34.873955 19.616599l-8.282564-24.411768a64.516816 64.516816 0 0 0-79.338246-40.105047 63.644967 63.644967 0 0 0-34.43803 22.66807L501.770059 43.592443A67.132362 67.132362 0 0 0 381.454916 32.694332a60.593496 60.593496 0 0 0-7.410715 20.052524 71.055682 71.055682 0 0 0-27.027315 0 63.644967 63.644967 0 0 0-39.233199 29.642861A61.02942 61.02942 0 0 0 302.11667 130.777329l70.619758 251.528396a365.304672 365.304672 0 0 1 9.590337 164.34351l-130.777329-104.185938C196.622958 405.845644 168.723794 415.000057 140.824631 441.155523a21.796222 21.796222 0 0 0-5.667018 9.590338c-7.410715 25.283617 18.74475 71.491607 78.030473 136.880271a479.516873 479.516873 0 0 1 43.592443 68.87606 269.401298 269.401298 0 0 0 124.674387 125.546236c112.032579 56.670176 187.883429 226.680704 188.755278 228.424401a21.796222 21.796222 0 0 0 20.052524 13.077733 21.360297 21.360297 0 0 0 8.718489 0 21.796222 21.796222 0 0 0 11.334035-28.771012c-3.487395-7.410715-83.261566-186.139732-209.243726-249.784699a227.552553 227.552553 0 0 1-106.365561-108.545183 527.904485 527.904485 0 0 0-50.567234-75.414926A473.413931 473.413931 0 0 1 177.442283 466.43914c10.026262-7.84664 19.180675-8.282564 48.387612 10.898111l152.137626 121.622916a21.360297 21.360297 0 0 0 17.872901 4.359244 21.796222 21.796222 0 0 0 14.821431-10.89811c39.233199-70.619758 13.077733-187.447505 3.92332-221.885535L343.965415 119.879218a17.436977 17.436977 0 0 1 0-13.513657 21.796222 21.796222 0 0 1 14.385506-10.026262 20.488448 20.488448 0 0 1 24.847693 12.641809l126.418085 370.535765a21.796222 21.796222 0 0 0 17.872901 14.821431h4.359245a21.796222 21.796222 0 0 0 23.539919-28.771013L417.636644 67.568287a17.001053 17.001053 0 0 1 0-13.077733A23.103995 23.103995 0 0 1 434.637697 43.592443a21.360297 21.360297 0 0 1 25.719541 12.641808l156.932795 435.924431a28.771012 28.771012 0 0 0 21.796221 14.82143 21.360297 21.360297 0 0 0 17.872902-5.667017 21.796222 21.796222 0 0 0 4.795169-20.052524L630.80369 361.817277a17.436977 17.436977 0 0 1 0-13.513657 21.796222 21.796222 0 0 1 14.385506-10.026262 20.488448 20.488448 0 0 1 24.847693 12.641808l51.875007 153.4454a21.796222 21.796222 0 0 0 43.592443-11.334036l-17.001053-87.184886a17.436977 17.436977 0 0 1 4.795169-13.513657 22.232146 22.232146 0 0 1 15.257355-9.154413 20.488448 20.488448 0 0 1 23.975844 13.949582 646.47593 646.47593 0 0 1 21.796221 217.962215 574.112474 574.112474 0 0 0 33.566181 248.041001 21.796222 21.796222 0 1 0 40.105048-17.436978z" fill="#4e73df" p-id="6355"></path></svg>