<?xml version="1.0" standalone="no"?><!DOCTYPE svg PUBLIC "-//W3C//DTD SVG 1.1//EN" "http://www.w3.org/Graphics/SVG/1.1/DTD/svg11.dtd"><svg t="1691160185635" class="icon" viewBox="0 0 1024 1024" version="1.1" xmlns="http://www.w3.org/2000/svg" p-id="3381" xmlns:xlink="http://www.w3.org/1999/xlink" width="200" height="200"><path d="M512 728.461778c59.107644 0 115.020281-20.767551 153.360374-63.900156 38.340094-38.340094 59.107644-89.460218 59.107645-145.372854V209.273011C724.468019 94.25273 631.812793 0 512 0S299.531981 94.25273 299.531981 209.273011v314.708268c0 110.227769 92.655226 204.480499 212.468019 204.480499z m-127.800312-519.188767c0-68.692668 55.912637-123.0078 127.800312-123.0078s127.800312 55.912637 127.800312 123.0078v314.708268c0 30.352574-12.780031 59.107644-33.547582 81.472699-25.560062 25.560062-59.107644 38.340094-94.25273 38.340094-71.887676 0-127.800312-55.912637-127.800312-123.007801V209.273011z" p-id="3382" fill="#4e73df"></path><path d="M852.268331 490.433697c0-25.560062-17.572543-43.132605-43.132606-43.132605s-43.132605 17.572543-43.132605 43.132605c0 145.372855-115.020281 263.588144-255.600624 263.588144s-255.600624-119.812793-255.600624-263.588144c0-25.560062-17.572543-43.132605-43.132605-43.132605s-43.132605 17.572543-43.132606 43.132605c0 178.920437 132.592824 324.293292 298.73323 345.060843v102.240249H384.199688c-25.560062 0-43.132605 17.572543-43.132605 43.132606s17.572543 43.132605 43.132605 43.132605h255.600624c25.560062 0 43.132605-17.572543 43.132605-43.132605s-17.572543-43.132605-43.132605-43.132606h-84.667707v-97.447738c166.140406-22.365055 297.135725-170.932917 297.135726-349.853354z" p-id="3383" fill="#4e73df"></path></svg>