<svg t="1633586212398" class="icon" viewBox="0 0 1024 1024" version="1.1" xmlns="http://www.w3.org/2000/svg" p-id="2514" width="200" height="200"><path d="M886.371007 162.192976l35.555924-35.555924a17.654258 17.654258 0 1 0-24.98811-24.988109l-35.52058 35.52058c-176.259833-164.437311-447.453275-183.222573-644.371593-44.444905-34.654655-30.978894-87.882509-30.165985-121.141082 3.11026-33.258573 33.258573-34.089154 86.504099-3.11026 121.141082-142.170679 201.707412-119.073466 481.436397 56.656208 657.166071 99.899422 99.899422 231.148848 149.857969 362.380603 149.857969s262.48118-49.958547 362.380602-149.857969c195.592924-195.628268 199.569109-511.284287 12.158288-711.949055zM120.893675 120.822987c10.002313-10.019984 23.309276-15.515955 37.482164-15.515954s27.479852 5.513642 37.482164 15.515954c1.413754 1.413754 2.491742 3.004228 3.711106 4.541686l1.024972 1.360739a52.945103 52.945103 0 0 1 10.44411 35.220157l-0.070687 0.830581a57.257054 57.257054 0 0 1-1.307723 8.129088c-0.159047 0.636189-0.371111 1.254707-0.565502 1.890896a53.439917 53.439917 0 0 1-2.350367 6.874381c-0.530158 1.201691-1.219363 2.350367-1.83788 3.499042-0.865925 1.64349-1.661161 3.304651-2.703806 4.859781a49.16331 49.16331 0 0 1-14.384951 14.261248c-0.212063 0.141375-0.441798 0.229735-0.636189 0.353439a55.030391 55.030391 0 0 1-38.54248 7.280835l-1.077988-0.212063a57.8579 57.8579 0 0 1-7.033428-1.996929c-1.413754-0.512486-2.827509-0.989628-4.188248-1.625817-1.0073-0.441798-1.943912-0.989628-2.915868-1.484442a52.662352 52.662352 0 0 1-6.644646-4.064544l-0.282751-0.212063c-1.92624-1.431426-3.887825-2.792165-5.602002-4.524015a53.068807 53.068807 0 0 1 0-74.982z m728.313263 728.330935c-186.03241 186.03241-488.734904 186.03241-674.784986 0C11.062628 685.776926-10.726862 425.80516 120.999707 238.093917c3.746449 1.749521 7.616602 3.127932 11.575114 4.329623 0.671533 0.194391 1.343067 0.424126 2.0146 0.600845 3.817137 1.077988 7.68729 1.908568 11.663474 2.456399l2.120632 0.212063c3.322323 0.371111 6.609302 0.971956 10.002312 0.971956 8.51787 0 16.735318-1.590474 24.687687-3.923169 1.661161-0.477142 3.304651-0.91894 4.930468-1.484442a87.175632 87.175632 0 0 0 15.056485-7.068772c1.961584-1.148675 3.94084-2.226663 5.814065-3.534386a85.355423 85.355423 0 0 0 11.981569-9.860937 86.0623 86.0623 0 0 0 10.108344-12.388023c1.131004-1.64349 2.067616-3.357667 3.074916-5.054172a87.051929 87.051929 0 0 0 7.174803-15.109501c0.777565-2.173647 1.360739-4.400311 1.961585-6.626974a88.394995 88.394995 0 0 0 2.615445-32.693071c-0.106032-0.971956-0.141375-1.92624-0.282751-2.898196a87.405367 87.405367 0 0 0-3.216291-14.031513 84.507171 84.507171 0 0 0-4.046872-10.726861l-0.106031-0.300423C421.051411-7.386867 672.275572 10.391095 836.165053 162.440383l-62.540961 62.558633c-152.367383-139.166451-389.330296-135.508361-536.696523 11.857866-151.589818 151.589818-151.589818 398.219277 0 549.809094 75.794909 75.794909 175.358564 113.701199 274.92222 113.7012s199.12731-37.90629 274.922219-113.7012c61.162551-61.144879 99.775718-141.53449 110.308189-227.455414a87.140288 87.140288 0 0 0 39.638139-22.461024 88.501027 88.501027 0 0 0 0-124.958219c-15.869393-15.869393-36.333489-24.069169-57.151022-25.323876a388.676435 388.676435 0 0 0-80.707706-136.727724l62.558633-62.558633c173.609043 186.880663 169.632859 480.128674-12.211303 661.972836z m25.005781-427.872776c13.572042 0 27.144085 5.177876 37.482164 15.498283a53.10415 53.10415 0 0 1 0 74.982 52.8214 52.8214 0 0 1-27.091069 14.437967l-5.142532 0.512486a54.076107 54.076107 0 0 1-22.832134-2.633118l-0.530158-0.159047a50.842143 50.842143 0 0 1-9.224747-4.417983c-0.388782-0.247407-0.830581-0.388782-1.219363-0.636189a51.17791 51.17791 0 0 1-8.924325-7.104116 53.068807 53.068807 0 0 1 0-74.982 52.662352 52.662352 0 0 1 32.003866-14.932781l5.160203-0.530158 0.318095-0.035344z m-30.731487-29.618155a87.440711 87.440711 0 0 0-14.19056 6.874381c-0.954284 0.54783-1.979256 0.936612-2.915868 1.519786a88.288964 88.288964 0 0 0-14.667702 11.734161 88.465683 88.465683 0 0 0 0 124.958219c3.852481 3.852481 8.076072 7.174804 12.476382 10.179032 1.714177 1.184019 3.516714 2.138304 5.283907 3.180948a85.867909 85.867909 0 0 0 15.462939 7.192475c2.155975 0.742221 4.329623 1.360739 6.538615 1.926241 3.057244 0.812909 6.096816 1.572802 9.207075 2.049944 0.265079 0.035344 0.512486 0.141375 0.759893 0.176719A353.244214 353.244214 0 0 1 761.713211 761.660195c-137.823384 137.823384-362.027164 137.823384-499.850548 0-137.805712-137.805712-137.805712-362.027164 0-499.832876 68.902856-68.902856 159.418483-103.345448 249.93411-103.345448 84.966641 0 169.721218 30.766831 236.803866 91.487583l-74.964329 74.964328a245.44544 245.44544 0 0 0-161.839537-60.455673c-66.163707 0-128.298214 25.694987-174.934438 72.348882s-72.348883 108.770731-72.348883 174.934438 25.694987 128.298214 72.348883 174.934438 108.770731 72.348883 174.934438 72.348882 128.298214-25.694987 174.934438-72.348882 72.348883-108.770731 72.348882-174.934438c0-60.208266-21.471395-116.935163-60.455673-161.839538l74.911312-74.911312c30.660799 33.930106 54.942031 73.409198 70.457986 116.387333-0.176719 0.070688-0.335767 0.194391-0.512486 0.265079z m-344.160842 132.592493a17.618914 17.618914 0 0 0 24.988109 0l149.345483-149.345483a210.419674 210.419674 0 0 1 50.099923 136.851428c0 56.726896-22.019225 109.990094-61.993132 149.946328s-93.219432 61.993131-149.946328 61.993132-109.990094-22.019225-149.946329-61.993132-61.993131-93.219432-61.993131-149.946328 22.019225-109.990094 61.993131-149.946328 93.219432-61.993131 149.946329-61.993132c50.771456 0 98.680059 17.742618 136.851428 50.099922l-149.345483 149.345483a17.654258 17.654258 0 0 0 0 24.98811z" fill="#4e73df" p-id="2515"></path></svg>